<svg xmlns="http://www.w3.org/2000/svg" viewBox="0 0 256 256" role="img" aria-labelledby="title desc">
  <title id="title">Nigeria Power Data icon</title>
  <desc id="desc">Vector mark with Nigeria outline, transmission tower, grid lines, analytics bars, blue energy swoosh, and signal node.</desc>
  <defs>
    <linearGradient id="npd-green" x1="26" x2="214" y1="32" y2="216" gradientUnits="userSpaceOnUse">
      <stop stop-color="#008751"/>
      <stop offset="1" stop-color="#00A86B"/>
    </linearGradient>
    <linearGradient id="npd-blue" x1="72" x2="222" y1="218" y2="134" gradientUnits="userSpaceOnUse">
      <stop stop-color="#0B5BE7"/>
      <stop offset="1" stop-color="#38BDF8"/>
    </linearGradient>
    <radialGradient id="npd-node" cx="0" cy="0" r="1" gradientTransform="matrix(22 0 0 22 174 52)" gradientUnits="userSpaceOnUse">
      <stop stop-color="#F8FAFC"/>
      <stop offset=".35" stop-color="#28C76F"/>
      <stop offset="1" stop-color="#008751"/>
    </radialGradient>
  </defs>
  <g fill="none" stroke-linecap="round" stroke-linejoin="round">
    <path d="M86 34c9-10 23 0 34-3 11-2 12 12 25 13 10 1 12 8 20 13 12-4 22-2 29 8 8 10 21 3 26 17 5 12-5 23-1 35 3 10-7 17-10 27-4 12-13 19-17 31-6 16-26 19-38 30-11 10-27 4-41 8-13 4-25-3-36-4-12-2-15-13-28-15-15-2-13-18-23-26-8-8-1-20-5-31-4-12 6-21 9-32 4-12 1-26 13-32 13-7 7-28 23-34 7-3 12 0 20-5Z" stroke="url(#npd-green)" stroke-width="9"/>
    <path d="M2 128c38 7 70-4 103-25m-103 49c39 6 73-2 112-25M3 177c40 5 77-4 117-31" stroke="#008751" stroke-width="5"/>
    <path d="M2 128h.5m0 24h.5m0 25h.5" stroke="#008751" stroke-width="16"/>
    <path d="M105 88h62M96 122h82M90 207 136 68l48 139M136 68v138M112 158l49-36M161 158l-49-36M103 190l64-68M170 190l-67-68M119 88l17-20 17 20" stroke="#0B1F3A" stroke-width="6"/>
    <path d="M58 123c42-13 82-36 116-70m-96 96c36-8 73-26 103-57" stroke="#008751" stroke-width="3.5"/>
    <circle cx="96" cy="115" r="6" fill="#F8FAFC" stroke="#008751" stroke-width="4"/>
    <circle cx="159" cy="115" r="5" fill="#F8FAFC" stroke="#008751" stroke-width="4"/>
    <circle cx="97" cy="145" r="5" fill="#F8FAFC" stroke="#008751" stroke-width="4"/>
    <circle cx="170" cy="53" r="14" fill="url(#npd-node)" stroke="#F8FAFC" stroke-width="4"/>
    <circle cx="170" cy="53" r="24" stroke="#008751" stroke-opacity=".38" stroke-width="4"/>
    <circle cx="170" cy="53" r="35" stroke="#008751" stroke-opacity=".24" stroke-width="4"/>
    <path d="M146 174h17v36h-17zM174 155h17v55h-17zM202 132h17v78h-17z" fill="#008751" stroke="none"/>
    <path d="M76 218c58 20 125 1 163-55-18 55-78 86-163 55Z" fill="url(#npd-blue)" stroke="none"/>
  </g>
</svg>
